<svg xmlns="http://www.w3.org/2000/svg" viewBox="0 0 512 512">
  <defs>
    <linearGradient id="g" x1="0" x2="1" y1="0" y2="1">
      <stop offset="0%" stop-color="#54c064"/>
      <stop offset="100%" stop-color="#2f9e44"/>
    </linearGradient>
    <linearGradient id="v" x1="0" x2="0" y1="0" y2="1">
      <stop offset="0%" stop-color="#e9f7ef" stop-opacity="0.9"/>
      <stop offset="100%" stop-color="#c3f0d2" stop-opacity="0.6"/>
    </linearGradient>
    <filter id="s" x="-20%" y="-20%" width="140%" height="140%">
      <feGaussianBlur in="SourceAlpha" stdDeviation="8" result="blur"/>
      <feOffset in="blur" dx="0" dy="6" result="off"/>
      <feColorMatrix in="off" type="matrix" values="0 0 0 0 0  0 0 0 0 0  0 0 0 0 0  0 0 0 0.25 0" result="shadow"/>
      <feBlend in="SourceGraphic" in2="shadow" mode="normal"/>
    </filter>
  </defs>

  <!-- Soft rounded background -->
  <rect x="56" y="56" width="400" height="400" rx="96" fill="url(#v)"/>

  <!-- Leaf group -->
  <g transform="translate(64,44)" filter="url(#s)">
    <!-- Stem -->
    <path d="M210 380c-18-78-6-150 36-214" fill="none" stroke="#2f9e44" stroke-width="16" stroke-linecap="round"/>

    <!-- Main leaf -->
    <path d="M384 136c-40 72-128 120-216 120-28 0-52-6-72-16 6-20 18-40 36-60 64-72 168-108 236-92 12 3 18 16 16 28z" fill="url(#g)"/>

    <!-- Veins -->
    <path d="M312 156c-40 52-116 92-188 100" fill="none" stroke="#e6ffe9" stroke-opacity="0.9" stroke-width="8" stroke-linecap="round"/>
    <path d="M276 148c-22 36-72 72-122 88" fill="none" stroke="#e6ffe9" stroke-opacity="0.9" stroke-width="6" stroke-linecap="round"/>
    <path d="M236 152c-14 26-48 52-82 68" fill="none" stroke="#e6ffe9" stroke-opacity="0.9" stroke-width="5" stroke-linecap="round"/>
  </g>

  <!-- Subtle highlight -->
  <ellipse cx="180" cy="160" rx="72" ry="34" fill="#ffffff" opacity="0.35"/>
</svg>


